<svg xmlns="http://www.w3.org/2000/svg" viewBox="0 -80 420 160" ><style>svg {color: hsl(340, 90%, 55%); background: hsl(215, 22%, 5%); background-image: url('data:image/svg+xml,%3Csvg xmlns="http://www.w3.org/2000/svg" viewBox="-50 -50 100 100"%3E%3Cg opacity="0.5"%3E%3Cg fill="currentColor" stroke="none"%3E%3Ccircle r="12" /%3E%3Ccircle r="12" transform="translate(50 -50)" /%3E%3Ccircle r="12" transform="translate(50 50)" /%3E%3Ccircle r="12" transform="translate(-50 50)" /%3E%3Ccircle r="12" transform="translate(-50 -50)" /%3E%3C/g%3E%3C/g%3E%3C/svg%3E'); background-size: 20px; } svg text { color: hsl(215, 10%, 97%); }</style><g fill="currentColor" transform="translate(50 0)" font-family="sans-serif"><text textLength="320" font-size="34" font-weight="700">borntofrappe</text><text y="28" style="text-transform: uppercase;" textLength="320" font-size="12">game-development</text></g><g transform="translate(210 100)"><circle fill="none" r="25" cy="-24"/><g fill="hsl(215, 10%, 97%)"><path d="M 23 -30 a 7.5 7.5 0 0 1 0 14 18 18 0 0 0 0 -14"/><path transform="scale(-1 1)" d="M 23 -30 a 7.5 7.5 0 0 1 0 14 18 18 0 0 0 0 -14"/><path d="M -25 -24 a 25 25 0 0 1 50 0 26 26 0 0 0 -50 0" /><path d="M -25 -24 a 25 25 0 0 0 50 0 25.2 25.2 0 0 1 -50 0" /><path d="M -8 -35 a 12.5 12.5 0 0 0 5 27.5 27.5 27.5 0 0 1 -5 -27.5" /></g></g></svg>
